<svg width="25" height="25" viewBox="0 0 25 25" fill="none" xmlns="http://www.w3.org/2000/svg">
<path d="M24.0918 1.20118L19.0137 0.0293061C18.4619 -0.097647 17.8955 0.190439 17.6709 0.708017L15.3272 6.17677C15.1221 6.65528 15.2588 7.21681 15.6641 7.54395L18.6231 9.96583C16.8653 13.7109 13.794 16.8262 9.97072 18.6182L7.54885 15.6592C7.21682 15.2539 6.66018 15.1172 6.18166 15.3223L0.712911 17.666C0.19045 17.8955 -0.0976359 18.4619 0.0293172 19.0137L1.20119 24.0918C1.32326 24.6191 1.79201 25 2.34377 25C14.8487 25 25 14.8682 25 2.34376C25 1.79688 24.624 1.32325 24.0918 1.20118Z" fill="white"/>
</svg>
