<svg width="22" height="25" viewBox="0 0 22 25" fill="none" xmlns="http://www.w3.org/2000/svg">
<path d="M15.7988 2.5C14.7832 3.44238 13.8662 4.43311 13.0537 5.42822C11.7227 3.59473 10.0723 1.73486 8.20312 0C3.40527 4.45166 0 10.252 0 13.75C0 19.9634 4.89697 25 10.9375 25C16.978 25 21.875 19.9634 21.875 13.75C21.875 11.1489 19.3369 5.78418 15.7988 2.5ZM14.8481 19.1333C13.7905 19.8735 12.4863 20.3125 11.0771 20.3125C7.5542 20.3125 4.6875 17.9814 4.6875 14.1968C4.6875 12.3115 5.87451 10.6504 8.2417 7.8125C8.58008 8.20215 13.0674 13.9326 13.0674 13.9326L15.9302 10.667C16.1323 11.0015 16.3164 11.3286 16.4805 11.6421C17.8159 14.1904 17.2524 17.4512 14.8481 19.1333Z" fill="#FF7C1D"/>
</svg>
