<svg width="62" height="58" viewBox="0 0 62 58" fill="none" xmlns="http://www.w3.org/2000/svg">
<path d="M61.1569 50.8452L49.0827 39.3945C48.5378 38.8776 47.7991 38.5905 47.0241 38.5905H45.0503C48.3925 34.5358 50.3784 29.4371 50.3784 23.8892C50.3784 10.6926 39.1034 0 25.1898 0C11.2762 0 0 10.6926 0 23.8892C0 37.0858 11.275 47.7784 25.1898 47.7784C31.0386 47.7784 36.4163 45.8946 40.6909 42.7244V44.5967C40.6909 45.3318 40.9937 46.0324 41.5386 46.5493L53.6128 58C34.1337 34.5381 38.537 34.5381 57.7178 58L61.1448 54.7494C62.283 53.6697 62.2831 51.9249 61.1569 50.8452ZM25.1898 40.4271C15.558 40.4271 7.75238 33.0369 7.75238 23.8892C7.75238 14.7541 15.5447 7.35122 25.1898 7.35122C34.8215 7.35122 42.6272 14.7415 42.6272 23.8892C42.6272 33.0242 34.8349 40.4271 25.1898 40.4271ZM25.1922 12.8646C20.254 12.8646 16.2507 16.6609 16.2507 21.345C16.2507 25.1308 22.0947 32.033 24.3337 34.5381C24.4387 34.6573 24.57 34.7532 24.7183 34.819C24.8667 34.8847 25.0285 34.9188 25.1922 34.9188C25.356 34.9188 25.5177 34.8847 25.6661 34.819C25.8144 34.7532 25.9458 34.6573 26.0508 34.5381C28.2898 32.033 34.1337 25.132 34.1337 21.345C34.1337 16.6609 30.1304 12.8646 25.1922 12.8646ZM25.1922 23.8915C23.5865 23.8915 22.286 22.6567 22.286 21.1348C22.286 19.6117 23.5877 18.3781 25.1922 18.3781C26.7967 18.3781 28.0985 19.6117 28.0985 21.1348C28.0985 22.6567 26.7967 23.8915 25.1922 23.8915Z" fill="#B6B6B6"/>
</svg>
