<svg width="22" height="25" viewBox="0 0 22 25" fill="none" xmlns="http://www.w3.org/2000/svg">
<path d="M17.1914 7.8125V6.25C17.1914 2.80371 14.387 0 10.94 0C7.49292 0 4.68857 2.80371 4.68857 6.25V7.8125H0V21.0938C0 23.2511 1.74928 25 3.90714 25H17.9729C20.1307 25 21.88 23.2511 21.88 21.0938V7.8125H17.1914ZM7.81429 6.25C7.81429 4.52686 9.21646 3.125 10.94 3.125C12.6635 3.125 14.0657 4.52686 14.0657 6.25V7.8125H7.81429V6.25ZM15.6286 12.1094C14.9812 12.1094 14.4564 11.5847 14.4564 10.9375C14.4564 10.2903 14.9812 9.76562 15.6286 9.76562C16.2759 9.76562 16.8007 10.2903 16.8007 10.9375C16.8007 11.5847 16.2759 12.1094 15.6286 12.1094ZM6.25143 12.1094C5.60406 12.1094 5.07929 11.5847 5.07929 10.9375C5.07929 10.2903 5.60406 9.76562 6.25143 9.76562C6.89879 9.76562 7.42357 10.2903 7.42357 10.9375C7.42357 11.5847 6.89879 12.1094 6.25143 12.1094Z" fill="#ECEAEA"/>
</svg>
