<svg width="35" height="26" viewBox="0 0 35 26" fill="none" xmlns="http://www.w3.org/2000/svg">
<path d="M17.036 6.74508L5.83379 15.5588V25.0713C5.83379 25.3176 5.93622 25.5538 6.11853 25.728C6.30084 25.9022 6.54811 26 6.80594 26L13.6146 25.9832C13.8716 25.9819 14.1176 25.8836 14.2989 25.7095C14.4802 25.5355 14.5819 25.3 14.5819 25.0545V19.4993C14.5819 19.253 14.6843 19.0168 14.8666 18.8426C15.049 18.6684 15.2962 18.5706 15.5541 18.5706H19.4426C19.7005 18.5706 19.9477 18.6684 20.1301 18.8426C20.3124 19.0168 20.4148 19.253 20.4148 19.4993V25.0504C20.4144 25.1726 20.4392 25.2937 20.4879 25.4067C20.5366 25.5197 20.6081 25.6224 20.6985 25.709C20.7888 25.7955 20.8961 25.8642 21.0142 25.911C21.1324 25.9579 21.259 25.982 21.3869 25.982L28.1932 26C28.451 26 28.6983 25.9022 28.8806 25.728C29.0629 25.5538 29.1653 25.3176 29.1653 25.0713V15.5524L17.9656 6.74508C17.8339 6.6437 17.6699 6.58841 17.5008 6.58841C17.3317 6.58841 17.1676 6.6437 17.036 6.74508ZM34.7309 12.7356L29.6514 8.73593V0.696506C29.6514 0.511781 29.5746 0.334622 29.4379 0.204002C29.3011 0.0733818 29.1157 0 28.9223 0H25.5198C25.3264 0 25.141 0.0733818 25.0042 0.204002C24.8675 0.334622 24.7907 0.511781 24.7907 0.696506V4.91095L19.3509 0.635562C18.8289 0.225192 18.1738 0.000820337 17.4977 0.000820337C16.8217 0.000820337 16.1666 0.225192 15.6446 0.635562L0.264606 12.7356C0.190776 12.7939 0.129693 12.8655 0.0848477 12.9464C0.0400026 13.0272 0.0122738 13.1157 0.00324585 13.2068C-0.00578212 13.2979 0.00406762 13.3898 0.0322323 13.4773C0.060397 13.5647 0.106325 13.646 0.167391 13.7165L1.71675 15.5158C1.77765 15.5866 1.85256 15.6452 1.93718 15.6882C2.02181 15.7312 2.11449 15.7579 2.20993 15.7667C2.30536 15.7755 2.40167 15.7662 2.49335 15.7394C2.58503 15.7126 2.67027 15.6688 2.74419 15.6104L17.036 4.36535C17.1676 4.26397 17.3317 4.20868 17.5008 4.20868C17.6699 4.20868 17.8339 4.26397 17.9656 4.36535L32.258 15.6104C32.3318 15.6688 32.4169 15.7127 32.5084 15.7396C32.6 15.7665 32.6962 15.7759 32.7915 15.7673C32.8869 15.7586 32.9795 15.7321 33.0642 15.6893C33.1488 15.6465 33.2238 15.5881 33.2848 15.5176L34.8342 13.7183C34.8952 13.6474 34.9409 13.5657 34.9687 13.4778C34.9966 13.39 35.006 13.2977 34.9964 13.2064C34.9868 13.1151 34.9584 13.0265 34.9128 12.9457C34.8672 12.8649 34.8054 12.7935 34.7309 12.7356Z" fill="#CE6B24"/>
</svg>
